<?xml version="1.0" encoding="UTF-8"?>
<svg xmlns="http://www.w3.org/2000/svg" version="1.2" baseProfile="tiny-ps" viewBox="0 0 512 512">
  <title>MOJI</title>
  <rect y="0" width="512" height="512" fill="#000"/>
  <path d="M95.833,285.865v-76.003h16.83l31.053,48.75,31.161-48.75h16.719v76.003h-19.109v-42.779l-26.817,42.779h-3.908l-26.711-42.671v42.671h-19.218Z" fill="#fff"/>
  <path d="M201.894,247.864c0-23.996,18.131-39.739,47.23-39.739s47.338,15.743,47.338,39.739-18.24,39.739-47.338,39.739-47.23-15.743-47.23-39.739ZM277.244,247.864c0-14.331-10.532-23.56-28.121-23.56-17.481,0-28.121,9.228-28.121,23.56s10.64,23.453,28.121,23.453c17.589,0,28.121-9.122,28.121-23.453Z" fill="#fff"/>
  <path d="M306.651,249.059h19.326c0,16.394,6.407,22.258,17.916,22.258,11.616,0,18.023-5.864,18.023-22.258v-23.018h-45.167v-16.179h64.277v39.197c0,28.229-14.874,38.544-37.132,38.544s-37.242-10.315-37.242-38.544Z" fill="#fff"/>
  <path d="M396.866,285.865v-76.003h19.218v76.003h-19.218Z" fill="#fff"/>
</svg>
