<?xml version="1.0" encoding="UTF-8" standalone="yes"?>
<svg width="85" height="85" baseProfile="tiny-ps" version="1.2" xmlns="http://www.w3.org/2000/svg">
  <title>bimi-svg-tiny-12-ps</title>
  <path d="M0 0h85v85H0z"/>
  <g fill="#fff">
    <path d="M15.9 47.5V34.9h2.8l5.2 8.1 5.2-8.1h2.8v12.6h-3.2v-7.1l-4.5 7.1h-.6l-4.4-7.1v7.1H16ZM33.5 41.1c0-4 3-6.6 7.8-6.6s7.9 2.6 7.9 6.6-3 6.6-7.9 6.6-7.8-2.6-7.8-6.6Zm12.5 0c0-2.4-1.7-3.9-4.7-3.9s-4.7 1.5-4.7 3.9 1.8 3.9 4.7 3.9 4.7-1.5 4.7-3.9ZM50.9 41.3h3.2c0 2.7 1.1 3.7 3 3.7s3-1 3-3.7v-3.8h-7.5v-2.7h10.7v6.5c0 4.7-2.5 6.4-6.2 6.4s-6.2-1.7-6.2-6.4ZM65.9 47.5V34.9h3.2v12.6h-3.2Z"/>
  </g>
</svg>
