<?xml version="1.0" encoding="UTF-8"?>
<svg xmlns="http://www.w3.org/2000/svg" id="Layer_2" data-name="Layer 2" viewBox="0 0 85.04 85.04" version="1.2">
  <defs>
    <style>
      .cls-1 {
        fill: #000;
      }

      .cls-1, .cls-2 {
        stroke-width: 0px;
      }

      .cls-2 {
        fill: #fff;
      }
    </style>
  </defs>
  <g id="Layer_1-2" data-name="Layer 1">
    <g>
      <rect class="cls-1" width="85.04" height="85.04"></rect>
      <g>
        <path class="cls-2" d="M15.92,47.48v-12.62h2.8l5.16,8.1,5.18-8.1h2.78v12.62h-3.17v-7.11l-4.45,7.11h-.65l-4.44-7.09v7.09h-3.19Z"></path>
        <path class="cls-2" d="M33.53,41.17c0-3.99,3.01-6.6,7.84-6.6s7.86,2.61,7.86,6.6-3.03,6.6-7.86,6.6-7.84-2.61-7.84-6.6ZM46.05,41.17c0-2.38-1.75-3.91-4.67-3.91s-4.67,1.53-4.67,3.91,1.77,3.9,4.67,3.9,4.67-1.52,4.67-3.9Z"></path>
        <path class="cls-2" d="M50.93,41.37h3.21c0,2.72,1.06,3.7,2.98,3.7s2.99-.97,2.99-3.7v-3.82h-7.5v-2.69h10.68v6.51c0,4.69-2.47,6.4-6.17,6.4s-6.19-1.71-6.19-6.4Z"></path>
        <path class="cls-2" d="M65.92,47.48v-12.62h3.19v12.62h-3.19Z"></path>
      </g>
    </g>
  </g>
  <title>Title</title>
</svg>
